<svg width="30" height="31" viewBox="0 0 30 31" fill="none" xmlns="http://www.w3.org/2000/svg">
  <path d="M18.4767 13.9888C18.0753 13.9404 17.6687 14.0153 17.3108 14.2035C16.953 14.3917 16.6609 14.6843 16.4734 15.0425C16.2859 15.4007 16.2118 15.8075 16.261 16.2088C16.3103 16.6101 16.4804 16.9869 16.7489 17.2892C17.0175 17.5915 17.3716 17.8049 17.7643 17.901C18.157 17.9972 18.5697 17.9716 18.9475 17.8275C19.3253 17.6835 19.6504 17.428 19.8794 17.0948C20.1085 16.7616 20.2307 16.3666 20.2299 15.9623C20.2486 15.7167 20.2177 15.4699 20.139 15.2365C20.0603 15.0031 19.9354 14.7879 19.7719 14.6038C19.6083 14.4196 19.4093 14.2703 19.1868 14.1646C18.9643 14.059 18.7228 13.9992 18.4767 13.9888Z"
        fill="#5865F2"/>
  <path d="M11.9686 13.9889C11.5674 13.9423 11.1614 14.0189 10.8047 14.2084C10.4479 14.398 10.1573 14.6915 9.97119 15.05C9.78513 15.4086 9.71247 15.8153 9.76289 16.2161C9.81331 16.6169 9.98442 16.9929 10.2535 17.2942C10.5226 17.5955 10.8769 17.8079 11.2694 17.9031C11.662 17.9984 12.0743 17.972 12.4516 17.8276C12.8288 17.6831 13.1532 17.4273 13.3817 17.0942C13.6102 16.7611 13.732 16.3663 13.731 15.9624C13.7497 15.716 13.7185 15.4685 13.6392 15.2345C13.56 15.0005 13.4343 14.7849 13.2697 14.6006C13.1052 14.4163 12.9052 14.2672 12.6816 14.1621C12.458 14.057 12.2155 13.9981 11.9686 13.9889Z"
        fill="#5865F2"/>
  <path d="M15.1821 0C13.1876 -3.64533e-07 11.2126 0.39302 9.37003 1.15657C7.52745 1.92011 5.85338 3.03923 4.44347 4.44999C3.03355 5.86075 1.91547 7.5355 1.15304 9.37854C0.390607 11.2216 -0.0012031 13.1968 2.77503e-06 15.1913C2.77503e-06 19.2179 1.59951 23.0795 4.44671 25.9267C7.29392 28.7739 11.1556 30.3735 15.1821 30.3735C19.1452 30.276 22.9133 28.6332 25.6818 25.7958C28.4503 22.9583 30 19.1511 30 15.1867C30 11.2224 28.4503 7.41514 25.6818 4.5777C22.9133 1.74026 19.1452 0.09744 15.1821 0V0ZM24.9302 20.1939C23.4344 21.3058 21.7575 22.1505 19.9736 22.6906C19.5737 22.1475 19.2177 21.5736 18.9088 20.9741C19.4924 20.7572 20.0548 20.4868 20.5886 20.1663L20.1755 19.8543C18.625 20.5841 16.9325 20.9625 15.2188 20.9625C13.5051 20.9625 11.8127 20.5841 10.2622 19.8543L9.85828 20.1663C10.3901 20.482 10.9492 20.7493 11.5289 20.9649C11.2253 21.5684 10.8722 22.1455 10.4733 22.6906C8.6889 22.1474 7.01198 21.2996 5.51661 20.1847C5.10381 16.2373 6.13056 12.2736 8.40797 9.02301C9.69531 8.42554 11.0567 8.00263 12.456 7.76548C12.6487 8.11429 12.8231 8.46309 12.9883 8.83026C14.4702 8.60996 15.9766 8.60996 17.4585 8.83026C17.6125 8.46568 17.7872 8.11017 17.9817 7.76548C19.3763 8.00515 20.7339 8.42476 22.0205 9.01382C24.3041 12.269 25.3372 16.2385 24.9302 20.1939V20.1939Z"
        fill="#5865F2"/>
</svg>
