<svg width="30" height="30" viewBox="0 0 30 30" fill="none" xmlns="http://www.w3.org/2000/svg">
  <path d="M15 30C23.2843 30 30 23.2843 30 15C30 6.71573 23.2843 0 15 0C6.71573 0 0 6.71573 0 15C0 23.2843 6.71573 30 15 30Z"
        fill="#4467AD"/>
  <path d="M16.1601 12.9555C16.4067 12.6778 16.6045 12.3955 16.8623 12.1578C17.228 11.8013 17.6609 11.521 18.1359 11.3333C18.6108 11.1456 19.1184 11.0542 19.629 11.0644C20.2174 11.0543 20.8044 11.1253 21.3734 11.2755C22.6756 11.6533 23.4312 12.5489 23.7934 13.82C24.0335 14.7726 24.1419 15.7535 24.1156 16.7355C24.1156 18.8089 24.1156 20.88 24.1156 22.9578C24.1156 23.1511 24.0623 23.2022 23.8712 23.2C22.8016 23.1911 21.7341 23.1911 20.669 23.2C20.4801 23.2 20.4467 23.1444 20.4467 22.9778C20.4467 21.0059 20.4467 19.0341 20.4467 17.0622C20.4578 16.5669 20.3995 16.0724 20.2734 15.5933C20.0179 14.7044 19.3845 14.26 18.4578 14.3066C17.1934 14.3733 16.5334 15.0022 16.3734 16.2889C16.3342 16.5954 16.3149 16.9042 16.3156 17.2133C16.3156 19.1311 16.3156 21.0489 16.3156 22.9666C16.3156 23.1578 16.2667 23.2133 16.0712 23.2111C14.9978 23.2111 13.9223 23.2111 12.8467 23.2111C12.6734 23.2111 12.6245 23.1667 12.6245 22.9889C12.6245 19.1933 12.6245 15.397 12.6245 11.6C12.6245 11.4111 12.6845 11.3778 12.8623 11.3778C13.8845 11.3867 14.906 11.3867 15.9267 11.3778C16.1134 11.3778 16.1623 11.4378 16.149 11.6155C16.1534 12.0467 16.1601 12.5 16.1601 12.9555Z"
        fill="#FEFEFE"/>
  <path d="M10.3111 17.2933C10.3111 19.1711 10.3111 21.0489 10.3111 22.9267C10.3111 23.1356 10.26 23.2 10.0444 23.1978C8.97554 23.1844 7.90888 23.1978 6.84222 23.1978C6.67111 23.1978 6.62 23.1556 6.62 22.9756C6.62 19.1711 6.62 15.3682 6.62 11.5667C6.62 11.4089 6.65999 11.3444 6.82666 11.3556C7.90888 11.3556 8.9911 11.3556 10.0733 11.3556C10.2822 11.3556 10.3089 11.4333 10.3089 11.6133C10.3074 13.5067 10.3081 15.4 10.3111 17.2933Z"
        fill="#FEFEFE"/>
  <path d="M10.6045 7.58887C10.6067 8.01102 10.4835 8.42432 10.2504 8.77633C10.0174 9.12835 9.68508 9.40322 9.29561 9.56609C8.90614 9.72897 8.47708 9.7725 8.06283 9.69117C7.64858 9.60984 7.26781 9.40731 6.96884 9.10927C6.66986 8.81123 6.46614 8.43111 6.38351 8.01712C6.30088 7.60313 6.34306 7.17393 6.50471 6.78395C6.66636 6.39397 6.9402 6.06078 7.29148 5.82665C7.64276 5.59252 8.05566 5.468 8.47782 5.46888C9.0398 5.47178 9.57803 5.69585 9.97604 6.09262C10.374 6.48938 10.5998 7.0269 10.6045 7.58887V7.58887Z"
        fill="#FEFEFE"/>
</svg>
