<svg width="30" height="30" viewBox="0 0 30 30" fill="none" xmlns="http://www.w3.org/2000/svg">
  <path d="M15 30C23.2843 30 30 23.2843 30 15C30 6.71574 23.2843 0 15 0C6.71573 0 0 6.71574 0 15C0 23.2843 6.71573 30 15 30Z"
        fill="url(#paint0_linear_101_830)"/>
  <path d="M10.1467 16.0956L11.9245 21.0222C11.9245 21.0222 12.1467 21.4822 12.3867 21.4822C12.6267 21.4822 16.1645 17.7956 16.1645 17.7956L20.1156 10.1867L10.2156 14.8267L10.1467 16.0956Z"
        fill="#C8DAEA"/>
  <path d="M10.1845 16.2711L6.52449 15.0756C6.52449 15.0756 6.08004 14.8978 6.22671 14.4956C6.2556 14.4134 6.3156 14.3423 6.48894 14.22C7.30005 13.6556 21.5023 8.55115 21.5023 8.55115C21.7069 8.47906 21.9271 8.46295 22.14 8.50449C22.1986 8.52324 22.2513 8.55683 22.2929 8.60201C22.3346 8.64719 22.3639 8.7024 22.3778 8.76225C22.4027 8.86776 22.4131 8.97617 22.4089 9.08449C22.4089 9.18004 22.3956 9.2667 22.3867 9.40448C22.3 10.8 19.72 21.2156 19.72 21.2156C19.72 21.2156 19.5645 21.8245 19.0089 21.8445C18.8728 21.8494 18.7371 21.8267 18.6099 21.7778C18.4827 21.7289 18.3668 21.6549 18.2689 21.56C17.18 20.6223 13.4156 18.0934 12.5845 17.5378C12.5658 17.5247 12.55 17.5079 12.5381 17.4884C12.5263 17.4689 12.5186 17.4471 12.5156 17.4245C12.5045 17.3667 12.5689 17.2934 12.5689 17.2934C12.5689 17.2934 19.1223 11.4689 19.2956 10.8489C19.3089 10.8023 19.2578 10.7778 19.1889 10.7978C18.7445 10.9578 11.2089 15.7223 10.3756 16.2489C10.3147 16.272 10.2491 16.2797 10.1845 16.2711Z"
        fill="white"/>
  <defs>
    <linearGradient id="paint0_linear_101_830" x1="15" y1="30" x2="15" y2="0" gradientUnits="userSpaceOnUse">
      <stop stop-color="#1D93D2"/>
      <stop offset="1" stop-color="#38B0E3"/>
    </linearGradient>
  </defs>
</svg>
