<svg width="30" height="30" viewBox="0 0 30 30" fill="none" xmlns="http://www.w3.org/2000/svg">
  <path d="M15 30C23.2843 30 30 23.2843 30 15C30 6.71573 23.2843 0 15 0C6.71572 0 0 6.71573 0 15C0 23.2843 6.71572 30 15 30Z"
        fill="#5A99EC"/>
  <path d="M11.9689 23.6378C19.3022 23.6378 23.3022 17.5689 23.3022 12.3044C23.3022 12.1333 23.3022 11.9622 23.3022 11.7911C24.0814 11.2269 24.7542 10.5286 25.2889 9.72888C24.5618 10.0495 23.7912 10.2607 23.0022 10.3556C23.8338 9.85722 24.4561 9.07384 24.7533 8.15111C23.9719 8.61573 23.1165 8.9427 22.2245 9.11777C21.6779 8.53576 20.969 8.13138 20.1899 7.95707C19.4107 7.78276 18.5971 7.84657 17.8547 8.1402C17.1122 8.43384 16.4751 8.94377 16.0259 9.60387C15.5767 10.264 15.3362 11.0438 15.3356 11.8422C15.3343 12.1481 15.3686 12.4531 15.4378 12.7511C13.8542 12.6717 12.3049 12.2601 10.8907 11.5431C9.47645 10.826 8.22884 9.81948 7.2289 8.58889C6.71896 9.46573 6.56265 10.504 6.79182 11.4922C7.02099 12.4803 7.61838 13.3438 8.46223 13.9067C7.82961 13.8873 7.21084 13.7166 6.65778 13.4089C6.65662 13.4259 6.65662 13.443 6.65778 13.46C6.65804 14.3796 6.9764 15.2708 7.55884 15.9825C8.14128 16.6941 8.95195 17.1824 9.85336 17.3644C9.2671 17.5236 8.65229 17.5472 8.05557 17.4333C8.31154 18.2237 8.80725 18.9148 9.47388 19.4105C10.1405 19.9063 10.945 20.1823 11.7756 20.2C10.3643 21.3065 8.62222 21.9068 6.8289 21.9044C6.51177 21.905 6.1949 21.8865 5.88 21.8489C7.70107 23.0185 9.82016 23.6395 11.9845 23.6378"
        fill="white"/>
</svg>
